<svg width="34" height="39" viewBox="0 0 34 39" fill="none" xmlns="http://www.w3.org/2000/svg">
<path id="Vector" d="M17.0234 19.8726C18.1578 19.8726 19.1292 19.4831 19.9377 18.7041C20.7463 17.9251 21.1498 16.9898 21.1484 15.8981C21.1484 14.8051 20.7442 13.8691 19.9357 13.0901C19.1272 12.3111 18.1564 11.9222 17.0234 11.9236C15.8891 11.9236 14.9176 12.3131 14.1091 13.0921C13.3006 13.8711 12.8971 14.8064 12.8984 15.8981C12.8984 16.9911 13.3027 17.9271 14.1112 18.7061C14.9197 19.4851 15.8904 19.8739 17.0234 19.8726ZM17.0234 39C16.7484 39 16.4734 38.9503 16.1984 38.851C15.9234 38.7516 15.6828 38.6191 15.4766 38.4535C10.4578 34.1809 6.71094 30.2143 4.23594 26.5538C1.76094 22.8932 0.523438 19.4738 0.523438 16.2955C0.523438 11.3274 2.18238 7.36943 5.50025 4.42166C8.81812 1.47389 12.6592 0 17.0234 0C21.3891 0 25.2308 1.47389 28.5487 4.42166C31.8666 7.36943 33.5248 11.3274 33.5234 16.2955C33.5234 19.4752 32.2859 22.8952 29.8109 26.5558C27.3359 30.2163 23.5891 34.1822 18.5703 38.4535C18.3641 38.6191 18.1234 38.7516 17.8484 38.851C17.5734 38.9503 17.2984 39 17.0234 39Z" fill="#12037F"/>
</svg>
