<svg width="39" height="31" viewBox="0 0 39 31" fill="none" xmlns="http://www.w3.org/2000/svg">
<path id="Vector" d="M34.7508 7.6L19.5508 17.1L4.35078 7.6V3.8L19.5508 13.3L34.7508 3.8M34.7508 0H4.35078C2.24178 0 0.550781 1.691 0.550781 3.8V26.6C0.550781 27.6078 0.951137 28.5744 1.66378 29.287C2.37641 29.9996 3.34296 30.4 4.35078 30.4H34.7508C35.7586 30.4 36.7251 29.9996 37.4378 29.287C38.1504 28.5744 38.5508 27.6078 38.5508 26.6V3.8C38.5508 2.79218 38.1504 1.82563 37.4378 1.11299C36.7251 0.400356 35.7586 0 34.7508 0Z" fill="#12037F"/>
</svg>
