<svg width="39" height="38" viewBox="0 0 39 38" fill="none" xmlns="http://www.w3.org/2000/svg">
<path id="Vector" d="M36.5529 38C32.014 38 27.5898 36.9881 23.2803 34.9642C18.9708 32.9404 15.1532 30.2663 11.8275 26.942C8.50183 23.6177 5.82775 19.8001 3.80531 15.4892C1.78287 11.1783 0.770939 6.75415 0.769531 2.21667C0.769531 1.58333 0.980642 1.05556 1.40286 0.633333C1.82509 0.211111 2.35286 0 2.9862 0H11.5362C12.0288 0 12.4686 0.158333 12.8556 0.475C13.2427 0.791667 13.4714 1.1963 13.5418 1.68889L14.914 9.07778C14.9843 9.57037 14.9752 10.0193 14.8865 10.4247C14.7979 10.83 14.5959 11.1903 14.2806 11.5056L9.21398 16.6778C10.6918 19.2111 12.539 21.5861 14.7556 23.8028C16.9723 26.0194 19.4177 27.937 22.0918 29.5556L27.0529 24.5944C27.3695 24.2778 27.7833 24.0406 28.2942 23.883C28.8051 23.7254 29.3061 23.681 29.7973 23.75L37.0806 25.2278C37.5732 25.3333 37.9779 25.5712 38.2945 25.9413C38.6112 26.3115 38.7695 26.7421 38.7695 27.2333V35.7833C38.7695 36.4167 38.5584 36.9444 38.1362 37.3667C37.714 37.7889 37.1862 38 36.5529 38Z" fill="#12037F"/>
</svg>
