<svg width="39" height="38" viewBox="0 0 39 38" fill="none" xmlns="http://www.w3.org/2000/svg">
<path id="Vector" d="M25.602 27.93L28.262 25.27L21.232 18.24V9.5H17.432V19.76L25.602 27.93ZM19.332 38C16.7037 38 14.2337 37.5009 11.922 36.5028C9.61036 35.5047 7.59953 34.1512 5.88953 32.4425C4.17953 30.7325 2.8261 28.7217 1.82923 26.41C0.832365 24.0983 0.333298 21.6283 0.332031 19C0.332031 16.3717 0.831098 13.9017 1.82923 11.59C2.82736 9.27833 4.1808 7.2675 5.88953 5.5575C7.59953 3.8475 9.61036 2.49407 11.922 1.4972C14.2337 0.500333 16.7037 0.00126667 19.332 0C21.9604 0 24.4304 0.499067 26.742 1.4972C29.0537 2.49533 31.0645 3.84877 32.7745 5.5575C34.4845 7.2675 35.8386 9.27833 36.8367 11.59C37.8349 13.9017 38.3333 16.3717 38.332 19C38.332 21.6283 37.833 24.0983 36.8348 26.41C35.8367 28.7217 34.4833 30.7325 32.7745 32.4425C31.0645 34.1525 29.0537 35.5066 26.742 36.5047C24.4304 37.5028 21.9604 38.0013 19.332 38Z" fill="#12037F"/>
</svg>
